<?xml version="1.0" encoding="UTF-8"?>
<svg id="uuid-97195156-80ee-4c2c-a1cf-c5b7b42fbad6" data-name="Layer 1" xmlns="http://www.w3.org/2000/svg" viewBox="0 0 500 500">
  <defs>
    <style>
      .uuid-521bd202-b202-4933-9ddb-0b91a59bd2f5 {
        fill: #d83c3b;
      }
    </style>
  </defs>
  <path class="uuid-521bd202-b202-4933-9ddb-0b91a59bd2f5" d="M106,19.707v54c0,17.673-14.327,32-32,32H20c-5.523,0-10,4.477-10,10v76c0,5.523,4.477,10,10,10h76c5.523,0,10-4.477,10-10v-54c0-17.673,14.327-32,32-32h54c5.523,0,10-4.477,10-10V19.707c0-5.523-4.477-10-10-10h-76c-5.523,0-10,4.477-10,10Z"/>
  <path class="uuid-521bd202-b202-4933-9ddb-0b91a59bd2f5" d="M480,106.293h-54c-17.673,0-32-14.327-32-32V20.293c0-5.523-4.477-10-10-10h-76c-5.523,0-10,4.477-10,10v76c0,5.523,4.477,10,10,10h54c17.673,0,32,14.327,32,32v54c0,5.523,4.477,10,10,10h76c5.523,0,10-4.477,10-10v-76c0-5.523-4.477-10-10-10Z"/>
  <path class="uuid-521bd202-b202-4933-9ddb-0b91a59bd2f5" d="M394,480.293v-54c0-17.673,14.327-32,32-32h54c5.523,0,10-4.477,10-10v-76c0-5.523-4.477-10-10-10h-76c-5.523,0-10,4.477-10,10v54c0,17.673-14.327,32-32,32h-54c-5.523,0-10,4.477-10,10v76c0,5.523,4.477,10,10,10h76c5.523,0,10-4.477,10-10Z"/>
  <path class="uuid-521bd202-b202-4933-9ddb-0b91a59bd2f5" d="M20,393.707h54c17.673,0,32,14.327,32,32v54c0,5.523,4.477,10,10,10h76c5.523,0,10-4.477,10-10v-76c0-5.523-4.477-10-10-10h-54c-17.673,0-32-14.327-32-32v-54c0-5.523-4.477-10-10-10H20c-5.523,0-10,4.477-10,10v76c0,5.523,4.477,10,10,10Z"/>
</svg>